<?xml version="1.0" encoding="utf-8"?>
<!-- Generator: Adobe Illustrator 26.3.1, SVG Export Plug-In . SVG Version: 6.00 Build 0)  -->
<svg version="1.1" id="Layer_1" xmlns="http://www.w3.org/2000/svg" xmlns:xlink="http://www.w3.org/1999/xlink" x="0px" y="0px"
	 viewBox="0 0 102 87" style="enable-background:new 0 0 102 87;" xml:space="preserve" width="102" height="87">
<style type="text/css">
	.st0{fill:#FFFFFF;stroke:#000000;stroke-miterlimit:10;}
	.st1{fill:#FFFFFF;}
	.st2{fill:none;stroke:#000000;stroke-width:2;stroke-miterlimit:3.8491;}
</style>
<polygon points="-17.3,-15.7 -17.3,-15.7 -17.3,-15.7 "/>
<path class="st0" d="M41.4,17.4l6.7,0.2L64,31.8l-0.5,2.5c-0.1,0.3,0,0.5,0.1,0.8c0.1,0.2,0.3,0.5,0.6,0.6c0.2,0.2,0.5,0.3,0.8,0.3
	s0.6,0,0.9-0.2l1.7-0.8l12.9,11.5c0.3,0.3,0.7,0.4,1.1,0.4s0.8-0.2,1.1-0.4c0.3-0.3,0.5-0.6,0.5-1s-0.2-0.7-0.5-1l-12-10.9l6.5-3.1
	l11.3,5.3c0.3,0.1,0.6,0.2,0.9,0.2s0.6-0.1,0.8-0.3c0.2-0.2,0.4-0.4,0.5-0.6c0.1-0.2,0.1-0.5,0.1-0.8l-2.2-11.2l9.1-7.9
	c0.2-0.2,0.4-0.4,0.4-0.7c0.1-0.3,0.1-0.5,0-0.8s-0.3-0.5-0.5-0.7s-0.5-0.3-0.8-0.3L83.5,11c-0.2,0-0.4,0-0.6,0s-0.4,0.1-0.6,0.2
	s-0.3,0.3-0.4,0.4c-0.1,0.2-0.2,0.3-0.2,0.5s0,0.4,0,0.6c0.1,0.2,0.1,0.4,0.3,0.5c0.1,0.2,0.3,0.3,0.5,0.4c0.2,0.1,0.4,0.2,0.6,0.2
	l4.8,0.6L79,16.2V7.8l0.5,0.8c0.2,0.3,0.5,0.6,0.9,0.7c0.4,0.1,0.8,0.1,1.2-0.1C82,9,82.3,8.7,82.4,8.4c0.1-0.4,0.1-0.7-0.1-1.1
	l-3.5-6.4c-0.1-0.2-0.4-0.4-0.6-0.5c-0.3-0.1-0.5-0.2-0.8-0.2s-0.6,0.1-0.8,0.2c-0.3,0.1-0.5,0.3-0.6,0.5l-5.7,10.2l-12.6,1.6
	c-0.3,0-0.6,0.2-0.8,0.3c-0.2,0.2-0.4,0.4-0.5,0.7s-0.1,0.5,0,0.8s0.2,0.5,0.4,0.7l9.1,7.9l-1,5.2L50,15.2c-0.3-0.3-0.7-0.4-1.1-0.4
	l-7.4-0.2c-0.2,0-0.4,0-0.6,0.1c-0.2,0.1-0.4,0.2-0.5,0.3c-0.2,0.1-0.3,0.3-0.4,0.5c-0.1,0.2-0.1,0.4-0.1,0.6c0,0.2,0,0.4,0.1,0.6
	s0.2,0.3,0.3,0.5c0.1,0.1,0.3,0.3,0.5,0.3C41,17.4,41.2,17.4,41.4,17.4z M76.4,27.6l-6.5,3.1l7.3-10l7.3,10L78,27.6
	c-0.2-0.1-0.5-0.2-0.8-0.2C76.9,27.5,76.7,27.5,76.4,27.6z M85.3,22.9l1,5L79.8,19l11.6-2.3l-5.6,4.9c-0.2,0.2-0.3,0.4-0.4,0.6
	C85.3,22.4,85.3,22.6,85.3,22.9L85.3,22.9z M71.4,13.8c0.3,0,0.5-0.1,0.7-0.3c0.2-0.1,0.4-0.3,0.5-0.5l2.9-5.3v8.5l-8.9-1.8
	L71.4,13.8z M62.9,16.7L74.6,19l-6.5,8.9l1-5c0-0.2,0-0.5-0.1-0.7s-0.2-0.4-0.4-0.6L62.9,16.7z"/>
<path class="st0" d="M86.6,48.6c-0.3-0.3-0.7-0.4-1.1-0.4s-0.8,0.2-1.2,0.4c-0.3,0.3-0.5,0.6-0.5,1s0.2,0.8,0.5,1l8.5,7.5
	c0.9,0.8,1.4,1.9,1.4,3.1c0,1.1-0.5,2.3-1.4,3.1L72.1,82.6c-0.9,0.8-2.2,1.3-3.4,1.3s-2.5-0.5-3.4-1.3L46.4,65.9l6.7-5.8
	c0.2-0.2,0.4-0.4,0.4-0.7c0.1-0.3,0.1-0.5,0-0.8s-0.3-0.5-0.5-0.7s-0.5-0.3-0.8-0.3l-16.6-2.1l-7.4-13.3c-0.1-0.2-0.4-0.4-0.6-0.5
	c-0.3-0.1-0.5-0.2-0.8-0.2s-0.6,0.1-0.8,0.2c-0.3,0.1-0.5,0.3-0.6,0.5l-1.9,3.4l-3.7-3.3l-0.6-15.1c0.9,0.2,1.8,0.4,2.7,0.5
	c0.5,0.7,1.2,1.3,2,1.8s1.8,0.7,2.7,0.8c1,0.1,1.9,0,2.9-0.3c0.9-0.3,1.8-0.8,2.4-1.4c0.8-0.7,1.3-1.5,1.6-2.4s0.4-1.9,0.2-2.8
	s-0.7-1.8-1.4-2.5s-1.6-1.3-2.5-1.7c-1-0.4-2.1-0.5-3.1-0.4c-1.1,0.1-2.1,0.4-3,1c-0.9,0.5-1.6,1.3-2.1,2.1
	c-0.5,0.8-0.8,1.8-0.7,2.7c-0.6-0.1-1.3-0.3-1.9-0.5l-0.3-7.3l15.4,0.5c0.2,0,0.4,0,0.6-0.1c0.2-0.1,0.4-0.2,0.5-0.3
	c0.2-0.1,0.3-0.3,0.4-0.5c0.1-0.2,0.1-0.4,0.1-0.6s0-0.4-0.1-0.6c-0.1-0.2-0.2-0.3-0.3-0.5c-0.1-0.1-0.3-0.3-0.5-0.3
	c-0.2-0.1-0.4-0.1-0.6-0.1L29,14.2c-1.5-2.7-3.4-5.1-5.8-7.2c-3.1-2.9-7-5-11.2-6.3c-4.1-1-7.6-0.5-9.8,1.4c-2.2,2-2.8,5.1-1.5,8.7
	c1.4,3.8,3.8,7.2,7,9.9c2.4,2.1,5.1,3.9,8.1,5.2l0.7,16.9c0,0.4,0.2,0.7,0.5,1l5,4.4l-4,7.2L1.4,57.6c-0.3,0-0.6,0.1-0.8,0.3
	s-0.4,0.4-0.5,0.7C0,58.9,0,59.1,0,59.4c0.1,0.3,0.2,0.5,0.4,0.7l8.7,7.6c0.3,0.3,0.7,0.4,1.2,0.4c0.4,0,0.8-0.2,1.1-0.4
	c0.3-0.3,0.5-0.6,0.5-1s-0.2-0.7-0.5-1l-4.6-4L24.2,65l-10,13.7l1.6-8.5c0.1-0.4,0-0.8-0.3-1.1c-0.2-0.3-0.6-0.5-1.1-0.6
	c-0.4-0.1-0.9,0-1.2,0.2c-0.4,0.2-0.6,0.6-0.7,0.9L9.5,85c-0.1,0.3,0,0.5,0.1,0.8c0.1,0.2,0.3,0.5,0.6,0.6c0.2,0.2,0.5,0.3,0.8,0.3
	s0.6,0,0.9-0.2l14.8-6.9l14.8,6.9c0.3,0.1,0.6,0.2,0.9,0.2c0.3,0,0.6-0.1,0.8-0.3c0.2-0.2,0.4-0.4,0.6-0.6c0.1-0.2,0.1-0.5,0.1-0.8
	l-2.8-14.6l2.9-2.5l19,16.8c1.5,1.3,3.6,2.1,5.7,2.1s4.2-0.8,5.7-2.1l20.7-18.4c1.5-1.4,2.4-3.2,2.4-5.1c0-1.9-0.9-3.7-2.4-5.1
	L86.6,48.6z M29.6,26.5c-0.5,0.4-1,0.7-1.6,0.8c-0.6,0.1-1.3,0.1-1.9-0.2c1-0.3,1.9-0.8,2.6-1.4s1.3-1.4,1.6-2.3
	c0.2,0.5,0.3,1.1,0.2,1.7C30.4,25.6,30.1,26.1,29.6,26.5z M25,22.4c0.3-0.3,0.7-0.5,1.1-0.6s0.8-0.2,1.2-0.2c0.1,0,0.1,0,0.2,0
	c-0.1,0.8-0.5,1.5-1.1,2.1s-1.4,0.9-2.3,1c0-0.4,0-0.8,0.2-1.2C24.5,23.1,24.7,22.7,25,22.4z M10,18.8c-2.8-2.4-5-5.4-6.2-8.7
	C2.9,7.5,3.2,5.3,4.5,4.2C5.8,3,8.2,2.8,11.1,3.5c3.7,1.1,7.1,3,9.8,5.5c1.7,1.5,3.2,3.2,4.4,5.1L17,13.8c-0.2,0-0.4,0-0.7,0.1
	c-0.2,0.1-0.4,0.2-0.6,0.3c-0.2,0.1-0.3,0.3-0.4,0.5c-0.1,0.2-0.1,0.4-0.1,0.6l0.3,7.3C13.6,21.6,11.7,20.3,10,18.8z M34.4,58.2
	l8.7,1.1l-14.6,2.9V49l4.7,8.5c0.1,0.2,0.3,0.4,0.5,0.5S34.1,58.2,34.4,58.2z M10.6,59.4l8.7-1.1c0.3,0,0.5-0.1,0.7-0.3
	c0.2-0.1,0.4-0.3,0.5-0.5l4.7-8.5v13.3L10.6,59.4z M26.1,76.8L16,81.5l10.8-14.8l10.8,14.8l-10.1-4.7c-0.2-0.1-0.5-0.2-0.8-0.2
	C26.6,76.6,26.3,76.7,26.1,76.8L26.1,76.8z M37.8,70.2l1.6,8.5L29.5,65l17.3-3.5l-8.5,7.3c-0.2,0.2-0.3,0.4-0.4,0.6
	C37.8,69.7,37.8,70,37.8,70.2z"/>
<path class="st1" d="M41.1,36.9c0.9,0,1.9-0.3,2.6-0.8c0.8-0.5,1.4-1.1,1.7-1.9c0.3-0.8,0.4-1.6,0.2-2.4c-0.2-0.8-0.7-1.5-1.3-2.1
	l-2.3-2c-0.3-0.3-0.7-0.4-1.2-0.4c-0.4,0-0.8,0.1-1.2,0.4l-9.2,7.9c-0.3,0.3-0.5,0.6-0.5,1s0.2,0.7,0.5,1l2.3,2
	c0.7,0.6,1.5,1,2.4,1.1c0.9,0.2,1.9,0.1,2.8-0.2c0.9-0.3,1.6-0.8,2.2-1.5C40.8,38.5,41.1,37.7,41.1,36.9z M40.9,30.7l1.2,1
	c0.3,0.3,0.5,0.6,0.5,1s-0.2,0.7-0.5,1s-0.7,0.4-1.2,0.4c-0.4,0-0.8-0.1-1.2-0.4l-1.2-1L40.9,30.7z M37.4,37.6
	c-0.3,0.3-0.7,0.4-1.2,0.4c-0.4,0-0.8-0.1-1.2-0.4l-1.2-1l2.3-2l1.2,1c0.2,0.1,0.3,0.3,0.4,0.5c0.1,0.2,0.1,0.4,0.1,0.5
	c0,0.2,0,0.4-0.1,0.5C37.7,37.4,37.6,37.5,37.4,37.6L37.4,37.6z"/>
<path class="st1" d="M44.9,48.2c-0.2,0.1-0.3,0.3-0.4,0.5c-0.1,0.2-0.1,0.4-0.1,0.6c0,0.2,0,0.4,0.1,0.6c0.1,0.2,0.2,0.3,0.4,0.5
	c0.2,0.1,0.3,0.2,0.5,0.3s0.4,0.1,0.6,0.1c0.2,0,0.4,0,0.6-0.1c0.2-0.1,0.4-0.2,0.5-0.3l2.3-2c0.8-0.8,1.4-1.8,1.4-2.8
	c0.9,0,1.8-0.3,2.6-0.8s1.3-1.2,1.7-1.9c0.3-0.8,0.4-1.6,0.2-2.4c-0.2-0.8-0.7-1.6-1.3-2.1l-2.3-2C51.4,36.1,51,36,50.5,36
	c-0.4,0-0.8,0.2-1.2,0.4l-9.2,8.1c-0.2,0.1-0.3,0.3-0.4,0.5c-0.1,0.2-0.1,0.4-0.1,0.6c0,0.2,0,0.4,0.1,0.6c0.1,0.2,0.2,0.3,0.4,0.5
	c0.2,0.1,0.3,0.2,0.5,0.3s0.4,0.1,0.6,0.1c0.2,0,0.4,0,0.6-0.1c0.2-0.1,0.4-0.2,0.5-0.3l3.5-3l1.2,1c0.3,0.3,0.5,0.6,0.5,1
	s-0.2,0.7-0.5,1L44.9,48.2z M50.6,39.1l1.2,1c0.3,0.3,0.5,0.6,0.5,1s-0.2,0.7-0.5,1s-0.7,0.4-1.1,0.4c-0.4,0-0.8-0.1-1.1-0.4l-1.2-1
	L50.6,39.1z"/>
<path class="st1" d="M53.8,55.8c-0.2,0.1-0.3,0.3-0.4,0.5c-0.1,0.2-0.1,0.4-0.1,0.5c0,0.2,0,0.4,0.1,0.5c0.1,0.2,0.2,0.3,0.4,0.5
	c0.2,0.1,0.3,0.2,0.5,0.3s0.4,0.1,0.6,0.1c0.2,0,0.4,0,0.6-0.1c0.2-0.1,0.4-0.2,0.5-0.3l6.9-6c0.9-0.8,1.4-1.9,1.4-3s-0.5-2.2-1.4-3
	s-2.2-1.2-3.5-1.2s-2.5,0.4-3.5,1.2l-6.9,6c-0.3,0.3-0.5,0.6-0.5,1s0.2,0.7,0.5,1s0.7,0.4,1.1,0.4c0.4,0,0.8-0.1,1.1-0.4l3.5-3
	l2.3,2L53.8,55.8z M57.3,48.8l1.2-1c0.3-0.3,0.7-0.4,1.2-0.4c0.4,0,0.8,0.1,1.2,0.4c0.3,0.3,0.5,0.6,0.5,1s-0.2,0.7-0.5,1l-1.2,1
	L57.3,48.8z"/>
<path class="st1" d="M63.2,66.3c0.3,0.2,0.7,0.2,1.1,0.2s0.7-0.2,1-0.4l9.3-8.1c0.3-0.3,0.5-0.6,0.5-1s-0.2-0.7-0.5-1
	s-0.7-0.4-1.2-0.4c-0.4,0-0.8,0.1-1.2,0.4l-4.4,3.8l2.5-6.4c0.1-0.3,0.1-0.6,0-0.9c-0.1-0.3-0.4-0.6-0.7-0.7
	c-0.3-0.2-0.7-0.2-1.1-0.2s-0.7,0.2-1,0.4l-9.3,8c-0.3,0.3-0.5,0.6-0.5,1s0.2,0.7,0.5,1s0.7,0.4,1.2,0.4c0.4,0,0.8-0.1,1.2-0.4
	l4.4-3.8l-2.5,6.4c-0.1,0.3-0.1,0.6,0,0.9S62.9,66.1,63.2,66.3z"/>
<path class="st1" d="M69.5,72c0.5,0.4,1,0.7,1.6,0.9c0.6,0.2,1.2,0.3,1.9,0.3c0.6,0,1.3-0.1,1.9-0.3c0.6-0.2,1.1-0.5,1.6-0.9l4.6-4
	c0.9-0.8,1.4-1.9,1.4-3s-0.5-2.2-1.4-3l-2.3-2c-0.3-0.3-0.7-0.4-1.2-0.4c-0.4,0-0.8,0.1-1.2,0.4l-9.2,8c-0.3,0.3-0.5,0.6-0.5,1
	s0.2,0.7,0.5,1L69.5,72z M77.6,63.1l1.2,1c0.3,0.3,0.5,0.6,0.5,1s-0.2,0.7-0.5,1l-4.6,4c-0.3,0.3-0.7,0.4-1.2,0.4s-0.8-0.1-1.2-0.4
	l-1.2-1L77.6,63.1z"/>
<rect x="0.2" y="0.4" class="st2" width="101.5" height="86.1"/>
</svg>
