<svg width="102" height="87" viewBox="0 0 102 87" fill="none" xmlns="http://www.w3.org/2000/svg">
<path d="M1.77594 24.5463H100.128" stroke="white" stroke-width="2" stroke-miterlimit="10" stroke-linecap="round" stroke-linejoin="round"/>
<path d="M16.9071 16.8925C15.7722 16.8925 15.0157 16.5098 14.2591 15.7445C13.5026 14.9791 13.1243 14.2137 13.1243 13.0656C13.1243 11.9176 13.5026 11.1522 14.2591 10.3868L14.6374 10.0041C15.0157 10.0041 15.0157 9.62146 15.394 9.62146C15.7722 9.23877 15.7722 9.23877 16.1505 9.23877C16.5288 9.23877 17.2854 9.23877 17.6636 9.23877C18.0419 9.23877 18.0419 9.23877 18.4202 9.62146C18.7985 9.62146 18.7985 10.0041 19.1768 10.0041L19.555 10.3868C19.9333 10.7695 20.3116 11.1522 20.3116 11.5349C20.6899 11.9176 20.6899 12.683 20.6899 13.0656C20.6899 13.4483 20.6899 14.2137 20.3116 14.5964C20.3116 14.9791 19.9333 15.3618 19.555 15.7445C18.7985 16.5098 18.0419 16.8925 16.9071 16.8925Z" fill="white"/>
<path d="M28.2554 16.8925C27.1206 16.8925 26.3641 16.5098 25.6075 15.7445C24.8509 14.9791 24.4727 14.2137 24.4727 13.0656C24.4727 12.683 24.4727 11.9176 24.8509 11.5349C25.2292 11.1522 25.2292 10.7695 25.6075 10.3868C25.9858 10.0041 26.3641 9.62146 26.7423 9.62146C28.2554 8.85608 29.7686 9.23877 30.9034 10.3868C31.2817 10.7695 31.6599 11.1522 31.6599 11.5349C32.0382 11.9176 32.0382 12.683 32.0382 13.0656C32.0382 14.2137 31.66 14.9791 30.9034 15.7445C30.1468 16.5098 29.3903 16.8925 28.2554 16.8925Z" fill="white"/>
<path d="M39.6038 16.8925C39.2255 16.8925 38.469 16.8925 38.0907 16.5098C37.7124 16.1271 37.3341 16.1271 36.9559 15.7445C36.5776 15.3618 36.1993 14.9791 36.1993 14.5964C35.821 14.2137 35.821 13.4483 35.821 13.0656C35.821 12.683 35.821 11.9176 36.1993 11.5349C36.5776 11.1522 36.5776 10.7695 36.9559 10.3868C38.469 8.85608 40.7386 8.85608 42.2518 10.3868C42.63 10.7695 43.0083 11.1522 43.0083 11.5349C43.3866 11.9176 43.3866 12.683 43.3866 13.0656C43.3866 13.4483 43.3866 14.2137 43.0083 14.5964C42.63 14.9791 42.63 15.3618 42.2518 15.7445C41.4952 16.5098 40.7386 16.8925 39.6038 16.8925Z" fill="white"/>
<path d="M92.5628 1.58502H9.34151C5.18045 1.58502 1.77594 5.02921 1.77594 9.23877V78.1225C1.77594 82.3321 5.18045 85.7763 9.34151 85.7763H92.5628C96.7239 85.7763 100.128 82.3321 100.128 78.1225V9.23877C100.128 5.02921 96.7239 1.58502 92.5628 1.58502Z" stroke="white" stroke-width="2" stroke-miterlimit="10" stroke-linecap="round" stroke-linejoin="round"/>
<path d="M32.0382 43.6807L20.6899 55.1613L32.0382 66.6419" stroke="white" stroke-width="2" stroke-miterlimit="10" stroke-linecap="round" stroke-linejoin="round"/>
<path d="M69.8661 43.6807L81.2145 55.1613L69.8661 66.6419" stroke="white" stroke-width="2" stroke-miterlimit="10" stroke-linecap="round" stroke-linejoin="round"/>
<path d="M58.5177 39.8538L43.3866 70.4688" stroke="white" stroke-width="2" stroke-miterlimit="10" stroke-linecap="round" stroke-linejoin="round"/>
</svg>
