<svg width="24" height="16" viewBox="0 0 24 16" fill="none" xmlns="http://www.w3.org/2000/svg">
<path d="M23.4908 0H0.533881C0.240247 0 0 0.231884 0 0.515298V15.4589C0 15.4589 0 15.4589 0 15.4847C0 15.5105 0 15.5105 0 15.5362C0 15.562 0 15.562 0 15.5878C0 15.6135 -2.58552e-08 15.6135 0.026694 15.6393C0.026694 15.6651 0.026694 15.6651 0.0533881 15.6908C0.0533881 15.7166 0.0800823 15.7166 0.0800823 15.7424C0.0800823 15.7681 0.106776 15.7681 0.106776 15.7939C0.106776 15.7939 0.106776 15.7939 0.106776 15.8196C0.106776 15.8196 0.106776 15.8196 0.13347 15.8454L0.160164 15.8712L0.186858 15.8969C0.186858 15.8969 0.213553 15.9227 0.240247 15.9227C0.266941 15.9227 0.266941 15.9485 0.293635 15.9485C0.320329 15.9485 0.320329 15.9742 0.347023 15.9742C0.373717 15.9742 0.373717 15.9742 0.400411 16C0.427105 16 0.427105 16 0.453799 16C0.480493 16 0.480493 16 0.507187 16H0.533881H23.4908C23.5442 16 23.5709 16 23.5976 16H23.6243C23.6509 16 23.6776 15.9742 23.7043 15.9742L23.731 15.9485C23.7577 15.9485 23.7844 15.9227 23.7844 15.8969L23.8111 15.8712C23.8378 15.8454 23.8378 15.8454 23.8645 15.8196L23.8912 15.7939C23.8912 15.7939 23.8912 15.7939 23.8912 15.7681C23.8912 15.7423 23.9179 15.7424 23.9179 15.7166C23.9179 15.7166 23.9446 15.6908 23.9446 15.6651C23.9446 15.6393 23.9446 15.6393 23.9713 15.6135C23.998 15.5878 23.9713 15.5878 23.998 15.562C23.998 15.5362 23.998 15.5362 23.998 15.5105C23.998 15.4847 23.998 15.4847 23.998 15.4589C23.998 15.4589 23.998 15.4589 23.998 15.4332V0.515298C24.0247 0.231884 23.7844 0 23.4908 0ZM1.06776 3.3752L8.27516 8.88889L1.06776 14.4026V3.3752ZM2.08214 14.9436L9.15607 9.53301L11.692 11.4654C11.7988 11.5427 11.9056 11.5684 12.0123 11.5684C12.1191 11.5684 12.2526 11.5427 12.3327 11.4654L14.8686 9.53301L21.9425 14.9436H2.08214ZM22.9569 14.4026L15.7495 8.88889L22.9569 3.3752V14.4026ZM22.9569 2.06119L22.6366 2.31884L12.0123 10.4348L1.38809 2.31884L1.06776 2.06119V1.0306H22.9569V2.06119Z" fill="#EDDEA4"/>
</svg>
