<svg width="102" height="87" viewBox="0 0 117 113" fill="none" xmlns="http://www.w3.org/2000/svg">
<path d="M82.875 58.8542H87.75C91.6288 58.8542 95.3487 60.3424 98.0914 62.9913C100.834 65.6403 102.375 69.233 102.375 72.9792C102.375 76.7254 100.834 80.3181 98.0914 82.9671C95.3487 85.616 91.6288 87.1042 87.75 87.1042H82.875" stroke="white" stroke-width="2" stroke-linecap="round" stroke-linejoin="round"/>
<path d="M82.875 58.8542H87.75C91.6288 58.8542 95.3487 60.3424 98.0914 62.9913C100.834 65.6403 102.375 69.233 102.375 72.9792C102.375 76.7254 100.834 80.3181 98.0914 82.9671C95.3487 85.616 91.6288 87.1042 87.75 87.1042H82.875" stroke="white" stroke-opacity="0.2" stroke-width="2" stroke-linecap="round" stroke-linejoin="round"/>
<path d="M82.875 58.8542H87.75C91.6288 58.8542 95.3487 60.3424 98.0914 62.9913C100.834 65.6403 102.375 69.233 102.375 72.9792C102.375 76.7254 100.834 80.3181 98.0914 82.9671C95.3487 85.616 91.6288 87.1042 87.75 87.1042H82.875" stroke="white" stroke-opacity="0.2" stroke-width="2" stroke-linecap="round" stroke-linejoin="round"/>
<path d="M82.875 58.8542H87.75C91.6288 58.8542 95.3487 60.3424 98.0914 62.9913C100.834 65.6403 102.375 69.233 102.375 72.9792C102.375 76.7254 100.834 80.3181 98.0914 82.9671C95.3487 85.616 91.6288 87.1042 87.75 87.1042H82.875" stroke="white" stroke-opacity="0.2" stroke-width="2" stroke-linecap="round" stroke-linejoin="round"/>
<path d="M82.875 58.8542H87.75C91.6288 58.8542 95.3487 60.3424 98.0914 62.9913C100.834 65.6403 102.375 69.233 102.375 72.9792C102.375 76.7254 100.834 80.3181 98.0914 82.9671C95.3487 85.616 91.6288 87.1042 87.75 87.1042H82.875" stroke="white" stroke-opacity="0.2" stroke-width="2" stroke-linecap="round" stroke-linejoin="round"/>
<path d="M82.875 58.8542H87.75C91.6288 58.8542 95.3487 60.3424 98.0914 62.9913C100.834 65.6403 102.375 69.233 102.375 72.9792C102.375 76.7254 100.834 80.3181 98.0914 82.9671C95.3487 85.616 91.6288 87.1042 87.75 87.1042H82.875" stroke="white" stroke-opacity="0.2" stroke-width="2" stroke-linecap="round" stroke-linejoin="round"/>
<path d="M82.875 101.229C82.875 103.727 81.8478 106.122 80.0193 107.888C78.1908 109.654 75.7109 110.646 73.125 110.646H29.25C26.6641 110.646 24.1842 109.654 22.3557 107.888C20.5272 106.122 19.5 103.727 19.5 101.229V51.7917C19.5 51.1673 19.7568 50.5685 20.2139 50.127C20.671 49.6855 21.291 49.4375 21.9375 49.4375H80.4375C81.084 49.4375 81.7039 49.6855 82.1611 50.127C82.6182 50.5685 82.875 51.1673 82.875 51.7917V101.229Z" stroke="white" stroke-width="2" stroke-linecap="round" stroke-linejoin="round"/>
<path d="M82.875 101.229C82.875 103.727 81.8478 106.122 80.0193 107.888C78.1908 109.654 75.7109 110.646 73.125 110.646H29.25C26.6641 110.646 24.1842 109.654 22.3557 107.888C20.5272 106.122 19.5 103.727 19.5 101.229V51.7917C19.5 51.1673 19.7568 50.5685 20.2139 50.127C20.671 49.6855 21.291 49.4375 21.9375 49.4375H80.4375C81.084 49.4375 81.7039 49.6855 82.1611 50.127C82.6182 50.5685 82.875 51.1673 82.875 51.7917V101.229Z" stroke="white" stroke-opacity="0.2" stroke-width="2" stroke-linecap="round" stroke-linejoin="round"/>
<path d="M82.875 101.229C82.875 103.727 81.8478 106.122 80.0193 107.888C78.1908 109.654 75.7109 110.646 73.125 110.646H29.25C26.6641 110.646 24.1842 109.654 22.3557 107.888C20.5272 106.122 19.5 103.727 19.5 101.229V51.7917C19.5 51.1673 19.7568 50.5685 20.2139 50.127C20.671 49.6855 21.291 49.4375 21.9375 49.4375H80.4375C81.084 49.4375 81.7039 49.6855 82.1611 50.127C82.6182 50.5685 82.875 51.1673 82.875 51.7917V101.229Z" stroke="white" stroke-opacity="0.2" stroke-width="2" stroke-linecap="round" stroke-linejoin="round"/>
<path d="M82.875 101.229C82.875 103.727 81.8478 106.122 80.0193 107.888C78.1908 109.654 75.7109 110.646 73.125 110.646H29.25C26.6641 110.646 24.1842 109.654 22.3557 107.888C20.5272 106.122 19.5 103.727 19.5 101.229V51.7917C19.5 51.1673 19.7568 50.5685 20.2139 50.127C20.671 49.6855 21.291 49.4375 21.9375 49.4375H80.4375C81.084 49.4375 81.7039 49.6855 82.1611 50.127C82.6182 50.5685 82.875 51.1673 82.875 51.7917V101.229Z" stroke="white" stroke-opacity="0.2" stroke-width="2" stroke-linecap="round" stroke-linejoin="round"/>
<path d="M82.875 101.229C82.875 103.727 81.8478 106.122 80.0193 107.888C78.1908 109.654 75.7109 110.646 73.125 110.646H29.25C26.6641 110.646 24.1842 109.654 22.3557 107.888C20.5272 106.122 19.5 103.727 19.5 101.229V51.7917C19.5 51.1673 19.7568 50.5685 20.2139 50.127C20.671 49.6855 21.291 49.4375 21.9375 49.4375H80.4375C81.084 49.4375 81.7039 49.6855 82.1611 50.127C82.6182 50.5685 82.875 51.1673 82.875 51.7917V101.229Z" stroke="white" stroke-opacity="0.2" stroke-width="2" stroke-linecap="round" stroke-linejoin="round"/>
<path d="M82.875 101.229C82.875 103.727 81.8478 106.122 80.0193 107.888C78.1908 109.654 75.7109 110.646 73.125 110.646H29.25C26.6641 110.646 24.1842 109.654 22.3557 107.888C20.5272 106.122 19.5 103.727 19.5 101.229V51.7917C19.5 51.1673 19.7568 50.5685 20.2139 50.127C20.671 49.6855 21.291 49.4375 21.9375 49.4375H80.4375C81.084 49.4375 81.7039 49.6855 82.1611 50.127C82.6182 50.5685 82.875 51.1673 82.875 51.7917V101.229Z" stroke="white" stroke-opacity="0.2" stroke-width="2" stroke-linecap="round" stroke-linejoin="round"/>
<path d="M82.2949 2.65552C87.3308 10.0664 79.8574 14.1297 78.1365 18.1083C77.6789 19.0323 77.4281 20.0391 77.4004 21.063C77.3727 22.0869 77.5688 23.105 77.9759 24.0508C78.383 24.9966 78.9919 25.849 79.763 26.5522C80.534 27.2555 81.4499 27.7939 82.4509 28.1323C96.5884 33.9 100.8 6.97777 82.2949 2.65552Z" stroke="white" stroke-width="2" stroke-linecap="round" stroke-linejoin="round"/>
<path d="M82.2949 2.65552C87.3308 10.0664 79.8574 14.1297 78.1365 18.1083C77.6789 19.0323 77.4281 20.0391 77.4004 21.063C77.3727 22.0869 77.5688 23.105 77.9759 24.0508C78.383 24.9966 78.9919 25.849 79.763 26.5522C80.534 27.2555 81.4499 27.7939 82.4509 28.1323C96.5884 33.9 100.8 6.97777 82.2949 2.65552Z" stroke="white" stroke-opacity="0.2" stroke-width="2" stroke-linecap="round" stroke-linejoin="round"/>
<path d="M82.2949 2.65552C87.3308 10.0664 79.8574 14.1297 78.1365 18.1083C77.6789 19.0323 77.4281 20.0391 77.4004 21.063C77.3727 22.0869 77.5688 23.105 77.9759 24.0508C78.383 24.9966 78.9919 25.849 79.763 26.5522C80.534 27.2555 81.4499 27.7939 82.4509 28.1323C96.5884 33.9 100.8 6.97777 82.2949 2.65552Z" stroke="white" stroke-opacity="0.2" stroke-width="2" stroke-linecap="round" stroke-linejoin="round"/>
<path d="M82.2949 2.65552C87.3308 10.0664 79.8574 14.1297 78.1365 18.1083C77.6789 19.0323 77.4281 20.0391 77.4004 21.063C77.3727 22.0869 77.5688 23.105 77.9759 24.0508C78.383 24.9966 78.9919 25.849 79.763 26.5522C80.534 27.2555 81.4499 27.7939 82.4509 28.1323C96.5884 33.9 100.8 6.97777 82.2949 2.65552Z" stroke="white" stroke-opacity="0.2" stroke-width="2" stroke-linecap="round" stroke-linejoin="round"/>
<path d="M82.2949 2.65552C87.3308 10.0664 79.8574 14.1297 78.1365 18.1083C77.6789 19.0323 77.4281 20.0391 77.4004 21.063C77.3727 22.0869 77.5688 23.105 77.9759 24.0508C78.383 24.9966 78.9919 25.849 79.763 26.5522C80.534 27.2555 81.4499 27.7939 82.4509 28.1323C96.5884 33.9 100.8 6.97777 82.2949 2.65552Z" stroke="white" stroke-opacity="0.2" stroke-width="2" stroke-linecap="round" stroke-linejoin="round"/>
<path d="M82.2949 2.65552C87.3308 10.0664 79.8574 14.1297 78.1365 18.1083C77.6789 19.0323 77.4281 20.0391 77.4004 21.063C77.3727 22.0869 77.5688 23.105 77.9759 24.0508C78.383 24.9966 78.9919 25.849 79.763 26.5522C80.534 27.2555 81.4499 27.7939 82.4509 28.1323C96.5884 33.9 100.8 6.97777 82.2949 2.65552Z" stroke="white" stroke-opacity="0.2" stroke-width="2" stroke-linecap="round" stroke-linejoin="round"/>
<path d="M68.25 49.4375L80.9689 27.3696" stroke="white" stroke-width="2" stroke-linecap="round" stroke-linejoin="round"/>
<path d="M68.25 49.4375L80.9689 27.3696" stroke="white" stroke-opacity="0.2" stroke-width="2" stroke-linecap="round" stroke-linejoin="round"/>
<path d="M68.25 49.4375L80.9689 27.3696" stroke="white" stroke-opacity="0.2" stroke-width="2" stroke-linecap="round" stroke-linejoin="round"/>
<path d="M68.25 49.4375L80.9689 27.3696" stroke="white" stroke-opacity="0.2" stroke-width="2" stroke-linecap="round" stroke-linejoin="round"/>
<path d="M68.25 49.4375L80.9689 27.3696" stroke="white" stroke-opacity="0.2" stroke-width="2" stroke-linecap="round" stroke-linejoin="round"/>
<path d="M68.25 49.4375L80.9689 27.3696" stroke="white" stroke-opacity="0.2" stroke-width="2" stroke-linecap="round" stroke-linejoin="round"/>
<path d="M85.9999 28.9845L78 49.4375" stroke="white" stroke-width="2" stroke-linecap="round" stroke-linejoin="round"/>
<path d="M85.9999 28.9845L78 49.4375" stroke="white" stroke-opacity="0.2" stroke-width="2" stroke-linecap="round" stroke-linejoin="round"/>
<path d="M85.9999 28.9845L78 49.4375" stroke="white" stroke-opacity="0.2" stroke-width="2" stroke-linecap="round" stroke-linejoin="round"/>
<path d="M85.9999 28.9845L78 49.4375" stroke="white" stroke-opacity="0.2" stroke-width="2" stroke-linecap="round" stroke-linejoin="round"/>
<path d="M85.9999 28.9845L78 49.4375" stroke="white" stroke-opacity="0.2" stroke-width="2" stroke-linecap="round" stroke-linejoin="round"/>
<path d="M85.9999 28.9845L78 49.4375" stroke="white" stroke-opacity="0.2" stroke-width="2" stroke-linecap="round" stroke-linejoin="round"/>
<path d="M39 49.4375H24.375L17.0625 35.3125L14.625 21.1875L26.8125 28.25L39 49.4375Z" stroke="white" stroke-width="2" stroke-linecap="round" stroke-linejoin="round"/>
<path d="M39 49.4375H24.375L17.0625 35.3125L14.625 21.1875L26.8125 28.25L39 49.4375Z" stroke="white" stroke-opacity="0.2" stroke-width="2" stroke-linecap="round" stroke-linejoin="round"/>
<path d="M39 49.4375H24.375L17.0625 35.3125L14.625 21.1875L26.8125 28.25L39 49.4375Z" stroke="white" stroke-opacity="0.2" stroke-width="2" stroke-linecap="round" stroke-linejoin="round"/>
<path d="M39 49.4375H24.375L17.0625 35.3125L14.625 21.1875L26.8125 28.25L39 49.4375Z" stroke="white" stroke-opacity="0.2" stroke-width="2" stroke-linecap="round" stroke-linejoin="round"/>
<path d="M39 49.4375H24.375L17.0625 35.3125L14.625 21.1875L26.8125 28.25L39 49.4375Z" stroke="white" stroke-opacity="0.2" stroke-width="2" stroke-linecap="round" stroke-linejoin="round"/>
<path d="M39 49.4375H24.375L17.0625 35.3125L14.625 21.1875L26.8125 28.25L39 49.4375Z" stroke="white" stroke-opacity="0.2" stroke-width="2" stroke-linecap="round" stroke-linejoin="round"/>
<path d="M17.0625 35.3125L26.8125 28.25" stroke="white" stroke-width="2" stroke-linecap="round" stroke-linejoin="round"/>
<path d="M17.0625 35.3125L26.8125 28.25" stroke="white" stroke-opacity="0.2" stroke-width="2" stroke-linecap="round" stroke-linejoin="round"/>
<path d="M17.0625 35.3125L26.8125 28.25" stroke="white" stroke-opacity="0.2" stroke-width="2" stroke-linecap="round" stroke-linejoin="round"/>
<path d="M17.0625 35.3125L26.8125 28.25" stroke="white" stroke-opacity="0.2" stroke-width="2" stroke-linecap="round" stroke-linejoin="round"/>
<path d="M17.0625 35.3125L26.8125 28.25" stroke="white" stroke-opacity="0.2" stroke-width="2" stroke-linecap="round" stroke-linejoin="round"/>
<path d="M17.0625 35.3125L26.8125 28.25" stroke="white" stroke-opacity="0.2" stroke-width="2" stroke-linecap="round" stroke-linejoin="round"/>
<path d="M63.375 4.70835C63.375 4.08399 63.1182 3.4852 62.6611 3.04371C62.204 2.60221 61.584 2.35419 60.9375 2.35419H46.3125C45.666 2.35419 45.046 2.60221 44.5889 3.04371C44.1318 3.4852 43.875 4.08399 43.875 4.70835V49.4375H63.375V4.70835Z" stroke="white" stroke-width="2" stroke-linecap="round" stroke-linejoin="round"/>
<path d="M63.375 4.70835C63.375 4.08399 63.1182 3.4852 62.6611 3.04371C62.204 2.60221 61.584 2.35419 60.9375 2.35419H46.3125C45.666 2.35419 45.046 2.60221 44.5889 3.04371C44.1318 3.4852 43.875 4.08399 43.875 4.70835V49.4375H63.375V4.70835Z" stroke="white" stroke-opacity="0.2" stroke-width="2" stroke-linecap="round" stroke-linejoin="round"/>
<path d="M63.375 4.70835C63.375 4.08399 63.1182 3.4852 62.6611 3.04371C62.204 2.60221 61.584 2.35419 60.9375 2.35419H46.3125C45.666 2.35419 45.046 2.60221 44.5889 3.04371C44.1318 3.4852 43.875 4.08399 43.875 4.70835V49.4375H63.375V4.70835Z" stroke="white" stroke-opacity="0.2" stroke-width="2" stroke-linecap="round" stroke-linejoin="round"/>
<path d="M63.375 4.70835C63.375 4.08399 63.1182 3.4852 62.6611 3.04371C62.204 2.60221 61.584 2.35419 60.9375 2.35419H46.3125C45.666 2.35419 45.046 2.60221 44.5889 3.04371C44.1318 3.4852 43.875 4.08399 43.875 4.70835V49.4375H63.375V4.70835Z" stroke="white" stroke-opacity="0.2" stroke-width="2" stroke-linecap="round" stroke-linejoin="round"/>
<path d="M63.375 4.70835C63.375 4.08399 63.1182 3.4852 62.6611 3.04371C62.204 2.60221 61.584 2.35419 60.9375 2.35419H46.3125C45.666 2.35419 45.046 2.60221 44.5889 3.04371C44.1318 3.4852 43.875 4.08399 43.875 4.70835V49.4375H63.375V4.70835Z" stroke="white" stroke-opacity="0.2" stroke-width="2" stroke-linecap="round" stroke-linejoin="round"/>
<path d="M63.375 4.70835C63.375 4.08399 63.1182 3.4852 62.6611 3.04371C62.204 2.60221 61.584 2.35419 60.9375 2.35419H46.3125C45.666 2.35419 45.046 2.60221 44.5889 3.04371C44.1318 3.4852 43.875 4.08399 43.875 4.70835V49.4375H63.375V4.70835Z" stroke="white" stroke-opacity="0.2" stroke-width="2" stroke-linecap="round" stroke-linejoin="round"/>
<path d="M63.375 11.7708H53.625" stroke="white" stroke-width="2" stroke-linecap="round" stroke-linejoin="round"/>
<path d="M63.375 11.7708H53.625" stroke="white" stroke-opacity="0.2" stroke-width="2" stroke-linecap="round" stroke-linejoin="round"/>
<path d="M63.375 11.7708H53.625" stroke="white" stroke-opacity="0.2" stroke-width="2" stroke-linecap="round" stroke-linejoin="round"/>
<path d="M63.375 11.7708H53.625" stroke="white" stroke-opacity="0.2" stroke-width="2" stroke-linecap="round" stroke-linejoin="round"/>
<path d="M63.375 11.7708H53.625" stroke="white" stroke-opacity="0.2" stroke-width="2" stroke-linecap="round" stroke-linejoin="round"/>
<path d="M63.375 11.7708H53.625" stroke="white" stroke-opacity="0.2" stroke-width="2" stroke-linecap="round" stroke-linejoin="round"/>
<path d="M63.375 21.1875H58.5" stroke="white" stroke-width="2" stroke-linecap="round" stroke-linejoin="round"/>
<path d="M63.375 21.1875H58.5" stroke="white" stroke-opacity="0.2" stroke-width="2" stroke-linecap="round" stroke-linejoin="round"/>
<path d="M63.375 21.1875H58.5" stroke="white" stroke-opacity="0.2" stroke-width="2" stroke-linecap="round" stroke-linejoin="round"/>
<path d="M63.375 21.1875H58.5" stroke="white" stroke-opacity="0.2" stroke-width="2" stroke-linecap="round" stroke-linejoin="round"/>
<path d="M63.375 21.1875H58.5" stroke="white" stroke-opacity="0.2" stroke-width="2" stroke-linecap="round" stroke-linejoin="round"/>
<path d="M63.375 21.1875H58.5" stroke="white" stroke-opacity="0.2" stroke-width="2" stroke-linecap="round" stroke-linejoin="round"/>
<path d="M63.375 30.6042H53.625" stroke="white" stroke-width="2" stroke-linecap="round" stroke-linejoin="round"/>
<path d="M63.375 30.6042H53.625" stroke="white" stroke-opacity="0.2" stroke-width="2" stroke-linecap="round" stroke-linejoin="round"/>
<path d="M63.375 30.6042H53.625" stroke="white" stroke-opacity="0.2" stroke-width="2" stroke-linecap="round" stroke-linejoin="round"/>
<path d="M63.375 30.6042H53.625" stroke="white" stroke-opacity="0.2" stroke-width="2" stroke-linecap="round" stroke-linejoin="round"/>
<path d="M63.375 30.6042H53.625" stroke="white" stroke-opacity="0.2" stroke-width="2" stroke-linecap="round" stroke-linejoin="round"/>
<path d="M63.375 30.6042H53.625" stroke="white" stroke-opacity="0.2" stroke-width="2" stroke-linecap="round" stroke-linejoin="round"/>
<path d="M63.375 40.0208H58.5" stroke="white" stroke-width="2" stroke-linecap="round" stroke-linejoin="round"/>
<path d="M63.375 40.0208H58.5" stroke="white" stroke-opacity="0.2" stroke-width="2" stroke-linecap="round" stroke-linejoin="round"/>
<path d="M63.375 40.0208H58.5" stroke="white" stroke-opacity="0.2" stroke-width="2" stroke-linecap="round" stroke-linejoin="round"/>
<path d="M63.375 40.0208H58.5" stroke="white" stroke-opacity="0.2" stroke-width="2" stroke-linecap="round" stroke-linejoin="round"/>
<path d="M63.375 40.0208H58.5" stroke="white" stroke-opacity="0.2" stroke-width="2" stroke-linecap="round" stroke-linejoin="round"/>
<path d="M63.375 40.0208H58.5" stroke="white" stroke-opacity="0.2" stroke-width="2" stroke-linecap="round" stroke-linejoin="round"/>
</svg>
