<?xml version="1.0" encoding="utf-8"?>
<!-- Generator: Adobe Illustrator 26.3.1, SVG Export Plug-In . SVG Version: 6.00 Build 0)  -->
<svg version="1.1" id="Layer_1" xmlns="http://www.w3.org/2000/svg" xmlns:xlink="http://www.w3.org/1999/xlink" x="0px" y="0px"
	 viewBox="0 0 512 512" style="enable-background:new 0 0 512 512;" xml:space="preserve">
<style type="text/css">
	.st0{fill:#FB770A;stroke:#EC290B;stroke-width:10;stroke-linejoin:round;}
	.st1{fill:#EC290B;}
</style>
<path class="st0" d="M356,321.2l-11.3-7l23-18.5c27.8-22.3,38.4-55.9,27.7-87.5c-12.3-36.2-48.2-60.3-91.4-61.4
	c-2.2-0.1-4.5-0.1-6.7,0c-14.3,0.3-28.3,3.4-41.3,9.3c-13-5.9-27-9-41.3-9.3c-2.2-0.1-4.5-0.1-6.7,0c-43.3,1-79.1,25.1-91.4,61.4
	c-10.7,31.6-0.1,65.1,27.7,87.5l23,18.5l-15,9.3c-8.5,5.3-11.2,16.5-5.9,25c0,0,0,0,0,0l0,0c5.3,8.5,16.5,11.2,25,5.9c0,0,0,0,0,0
	l25.9-16l13.7,11c26.3,21.1,63.8,21.1,90.1,0l13.7-11l4.8,3l21,13c8.5,5.3,19.7,2.7,25-5.8c0,0,0,0,0,0l0,0c5.3-8.5,2.7-19.7-5.8-25
	c0,0,0,0,0,0L356,321.2z M243.9,219.3c2.2-7.7,6.4-14.6,12.1-20.1c5.8,5.5,10,12.5,12.1,20.1c3.8,14.1-0.7,28-12.1,38.7
	C244.5,247.3,240,233.4,243.9,219.3z M200,294l-33-26.5c-16-13-21.9-30.3-16-47.6c5.6-16.4,24.1-35.9,57.9-36.8c0.8,0,1.6,0,2.5,0
	h2.5c2.7,0.1,5.2,0.2,7.7,0.5c-5.8,7.8-10.1,16.7-12.7,26.1c-6.8,24.8-0.5,49.5,16.3,68.6L200,294z M278.3,321
	c-13,10.5-31.6,10.5-44.6,0l-3.7-3l26-16.1l26,16.1L278.3,321z M286.8,278.3c16.9-19.1,23.1-43.8,16.3-68.6
	c-2.6-9.4-6.9-18.3-12.7-26.1c2.5-0.3,5-0.5,7.7-0.5c1.6,0,3.3,0,4.9,0c33.9,0.9,52.4,20.4,57.9,36.8c5.9,17.3,0,34.6-16,47.6
	L312,294L286.8,278.3z"/>
<line class="st0" x1="312" y1="294" x2="344.7" y2="314.2"/>
<path class="st0" d="M256,199.2c0,0,18.2-13.8,34.5-15.5"/>
<path class="st0" d="M256,156.2c0,0-22.6,11.2-34.5,27.5"/>
<path class="st0" d="M286.8,278.3c0,0-22.8-14.3-30.8-20.3"/>
<path class="st0" d="M256,301.9c0,0-23.1-15.7-30.8-23.6"/>
<line class="st0" x1="230" y1="318" x2="197.3" y2="338.3"/>
<line class="st0" x1="200" y1="294" x2="167.3" y2="314.2"/>
<line class="st0" x1="282" y1="318" x2="314.7" y2="338.3"/>
<path class="st1" d="M280.5,336c1.4-1.1,3.5-0.9,4.6,0.5c1.1,1.3,1,3.2-0.2,4.4c-1.4,1.2-5.3,2.8-6.5,1.4S279.2,337.2,280.5,336z"/>
<path class="st1" d="M284.5,242.8c1.4-1.1,3.5-0.9,4.6,0.5c1.1,1.3,1,3.2-0.2,4.4c-1.4,1.2-5.3,2.8-6.5,1.4S283.1,244.1,284.5,242.8
	z"/>
<path class="st1" d="M296.9,304.9c1.3-1.2,3.4-1.2,4.7,0.1c1.2,1.3,1.2,3.4-0.1,4.7c0,0-0.1,0.1-0.1,0.1c-1.4,1.2-5.3,2.8-6.5,1.4
	S295.5,306.1,296.9,304.9z"/>
<path class="st1" d="M272.6,165.7c1.3-1.3,3.4-1.3,4.7,0c1.3,1.3,1.3,3.4,0,4.7c-0.1,0.1-0.2,0.2-0.3,0.2c-1.4,1.2-5.3,2.8-6.5,1.4
	S271.2,166.9,272.6,165.7z"/>
<path class="st1" d="M165.8,173.3c1.4-1.2,3.5-1,4.6,0.4c1.1,1.3,1,3.3-0.2,4.5c-1.4,1.2-5.3,2.8-6.5,1.4S164.4,174.6,165.8,173.3z"
	/>
<path class="st1" d="M178,325.4c1.4-1.1,3.5-0.9,4.6,0.5c1.1,1.3,1,3.2-0.2,4.4c-1.4,1.2-5.3,2.8-6.5,1.4S176.7,326.6,178,325.4z"/>
<path class="st1" d="M376.7,217.5c1.3-1.2,3.4-1.1,4.6,0.2s1.1,3.4-0.2,4.6l0,0c-1.3,1.2-5.3,2.8-6.5,1.4S375.3,218.7,376.7,217.5z"
	/>
<path class="st1" d="M135,210.6c1.3-1.3,3.4-1.3,4.7,0s1.3,3.4,0,4.7c-0.1,0.1-0.2,0.2-0.2,0.2c-1.4,1.2-5.3,2.8-6.5,1.4
	S133.7,211.8,135,210.6z"/>
<path class="st1" d="M318.6,169c-0.9,1.6-2.9,2.2-4.5,1.3c-1.6-0.9-2.2-2.9-1.3-4.5c0.9-1.6,4-4.4,5.6-3.5S319.4,167.4,318.6,169z"
	/>
<path class="st1" d="M216.3,165.3c-0.8,1.6-2.8,2.3-4.4,1.5s-2.3-2.8-1.5-4.4c0-0.1,0.1-0.2,0.1-0.2c0.9-1.6,4.1-4.4,5.6-3.5
	S217.1,163.7,216.3,165.3z"/>
<path class="st1" d="M351.1,292.5c-0.4,1.8-2.2,2.9-4,2.4c-1.8-0.4-2.9-2.2-2.4-4c0-0.1,0-0.2,0.1-0.3c0.5-1.7,3-5.1,4.8-4.6
	S351.6,290.8,351.1,292.5z"/>
<path class="st1" d="M235.6,264.3c-1.6-0.9-2.1-2.9-1.2-4.5c0.8-1.3,2.3-1.9,3.7-1.5c1.7,0.7,4.7,3.6,4,5.3S237.3,265,235.6,264.3z"
	/>
<path class="st1" d="M138.1,258.1c-1.7-0.5-2.8-2.3-2.3-4.1c0.5-1.7,2.3-2.8,4.1-2.3c0.3,0.1,0.5,0.2,0.8,0.3c1.7,0.7,4.7,3.6,4,5.3
	C144,259.1,139.8,258.9,138.1,258.1z"/>
<path class="st1" d="M239.6,193.5c-0.6,1.7-2.4,2.7-4.2,2.1c-1.6-0.5-2.6-2.2-2.2-3.9c0.5-1.8,3-5.1,4.8-4.6
	S240.1,191.7,239.6,193.5z"/>
<path class="st1" d="M361.2,182c1.6,0.9,2,3,1.1,4.5c-0.9,1.6-3,2-4.5,1.1c-0.1-0.1-0.2-0.1-0.2-0.2c-1.5-1-4-4.4-3-5.9
	S359.6,181,361.2,182z"/>
<path class="st1" d="M375.3,264.7c-1.4,1.1-3.5,0.8-4.6-0.6c-1.1-1.4-0.8-3.5,0.6-4.6c1.4-1.1,5.5-2.3,6.6-0.9
	S376.7,263.6,375.3,264.7z"/>
<path class="st1" d="M283.2,212.9c-1.4,1.1-3.5,0.8-4.6-0.6c-1.1-1.4-0.8-3.5,0.6-4.6l0,0c1.4-1.1,5.5-2.3,6.6-0.9
	S284.7,211.8,283.2,212.9z"/>
<path class="st1" d="M264.2,287.5c-1.4,1.1-3.5,0.8-4.6-0.6c-1.1-1.4-0.8-3.5,0.6-4.6c1.4-1.1,5.5-2.3,6.6-0.9
	S265.6,286.4,264.2,287.5z"/>
<path class="st1" d="M168.5,294.1c-1.5,1-3.5,0.6-4.6-0.9c-0.9-1.4-0.7-3.2,0.6-4.3c1.4-1.1,5.5-2.3,6.6-0.9S170,293,168.5,294.1z"
	/>
<path class="st1" d="M227.3,227.2c1.7-0.7,3.6,0.2,4.3,1.9c0.7,1.7-0.2,3.6-1.9,4.3c-0.1,0-0.2,0.1-0.2,0.1
	c-1.7,0.6-5.9,0.5-6.5-1.2S225.6,227.8,227.3,227.2z"/>
<path class="st1" d="M243.7,339.9c1.8,0.2,3.1,1.8,2.9,3.6c-0.2,1.7-1.6,3-3.3,2.9c-1.8-0.1-5.7-1.8-5.5-3.6
	S241.9,339.8,243.7,339.9z"/>
<path class="st1" d="M212.9,308.9c1,1.5,0.5,3.6-1.1,4.5c-1.3,0.8-3,0.6-4.1-0.5c-1.1-1.4-2.4-5.5-1-6.6S211.8,307.5,212.9,308.9z"
	/>
<path class="st1" d="M336.5,325.6c1.8,0.2,3.1,1.8,2.9,3.6c-0.2,1.7-1.6,3-3.3,2.9c-1.8-0.1-5.7-1.9-5.5-3.7
	S334.7,325.5,336.5,325.6z"/>
</svg>
